Results
version=1
nRows=14
nColumns=24
inDegrees=yes
endheader
time	pelvis_tilt	pelvis_list	pelvis_rotation	pelvis_tx	pelvis_ty	pelvis_tz	hip_flexion_r	hip_adduction_r	hip_rotation_r	knee_angle_r	ankle_angle_r	subtalar_angle_r	mtp_angle_r	hip_flexion_l	hip_adduction_l	hip_rotation_l	knee_angle_l	ankle_angle_l	subtalar_angle_l	mtp_angle_l	lumbar_extension	lumbar_bending	lumbar_rotation
      0.78300000	     -7.37761039	      3.08475698	      2.08178547	     -0.39933017	      1.06285648	      0.29902018	     18.28046877	     -0.99990422	      1.24895882	    -20.36266832	      7.80239698	     -6.68923120	      8.46906744	     23.76542537	     -0.57018329	     -4.86820056	    -68.60382595	      7.33633314	      3.17538193	      4.50880470	    -12.67247247	      1.34646936	      0.16542353
      0.78716667	     -7.31801144	      3.18102635	      1.97702480	     -0.39438366	      1.06363609	      0.29943492	     17.81650831	     -1.05997042	      1.30059172	    -20.12036823	      7.94813125	     -6.57405091	      8.45190040	     24.17748758	     -0.51368550	     -5.05729024	    -68.19106661	      7.65023260	      3.47270693	      4.52873780	    -12.72059466	      1.16396017	      0.45456993
      0.79133333	     -7.29398201	      3.31480655	      1.84939273	     -0.38944694	      1.06431477	      0.29988582	     17.40918952	     -1.15410177	      1.38852983	    -19.91046437	      8.06307371	     -6.49910105	      8.44577578	     24.60821285	     -0.42259201	     -5.27986283	    -67.72305201	      7.97045216	      3.70593202	      4.54368564	    -12.72707258	      0.94727506	      0.54579798
      0.79550000	     -7.22128176	      3.41792976	      1.72804878	     -0.38450921	      1.06505605	      0.30031364	     16.93640964	     -1.21980438	      1.45559015	    -19.67356041	      8.21767053	     -6.38254488	      8.43040242	     24.97980047	     -0.36727228	     -5.48695497	    -67.22134643	      8.27534761	      4.03170202	      4.56754303	    -12.79700507	      0.76027648	      0.83254332
      0.79966667	     -7.18251807	      3.53230349	      1.59398877	     -0.37958037	      1.06569756	      0.30074708	     16.51051209	     -1.29628828	      1.54340136	    -19.45163673	      8.35030069	     -6.29257062	      8.41620567	     25.37502184	     -0.30293790	     -5.71100473	    -66.67709881	      8.56543279	      4.30184293	      4.59074740	    -12.81978631	      0.56172935	      1.03032322
      0.80383333	     -7.13081787	      3.64306343	      1.45798873	     -0.37465874	      1.06633671	      0.30117553	     16.06958251	     -1.37060373	      1.63018782	    -19.22494718	      8.47839834	     -6.20470683	      8.40261048	     25.74472129	     -0.24294644	     -5.93163838	    -66.09133481	      8.84285392	      4.56177927	      4.61424615	    -12.86034688	      0.36947440	      1.22301613
      0.80800000	     -7.10603836	      3.75854329	      1.31639247	     -0.36974163	      1.06688600	      0.30159249	     15.66625526	     -1.45195657	      1.72477970	    -19.01349292	      8.59405064	     -6.12759038	      8.39432115	     26.13093366	     -0.17789308	     -6.15606006	    -65.46557302	      9.11060281	      4.80080602	      4.63310767	    -12.86446869	      0.19192810	      1.36703673
      0.81216667	     -7.04773862	      3.85006059	      1.18351309	     -0.36483578	      1.06745079	      0.30199596	     15.21740670	     -1.51125179	      1.80140221	    -18.78190517	      8.73673076	     -6.03059553	      8.38107757	     26.47777248	     -0.13920947	     -6.36629391	    -64.81759608	      9.36148465	      5.05831431	      4.65793008	    -12.91825015	      0.00649124	      1.61486416
      0.81633333	     -7.01545632	      3.97137215	      1.03957137	     -0.35994480	      1.06794659	      0.30239142	     14.81186734	     -1.60426835	      1.89329884	    -18.57680492	      8.84968882	     -5.95422954	      8.37525006	     26.83288578	     -0.06556732	     -6.58522476	    -64.11281833	      9.59028266	      5.26024583	      4.67351144	    -12.93502087	     -0.18041428	      1.72270142
      0.82050000	     -6.96755854	      4.06324407	      0.90469450	     -0.35505972	      1.06842336	      0.30276038	     14.38281058	     -1.67012587	      1.96710585	    -18.35885685	      8.99124214	     -5.85826942	      8.36734198	     27.16680894	     -0.02209200	     -6.78476309	    -63.38629367	      9.80832513	      5.49493355	      4.69278349	    -12.97181233	     -0.34270835	      1.92485634
      0.82466667	     -6.92254789	      4.15581658	      0.77159874	     -0.35017968	      1.06887033	      0.30311483	     13.95704632	     -1.73934938	      2.04205081	    -18.13956298	      9.11804153	     -5.77300654	      8.36059502	     27.49113412	      0.02687881	     -6.97347982	    -62.62119003	      9.99922820	      5.68221150	      4.70907946	    -13.00873985	     -0.50877068	      2.08636051
      0.82883333	     -6.89303718	      4.24255642	      0.64343830	     -0.34531473	      1.06924170	      0.30345024	     13.55181783	     -1.80584233	      2.11032903	    -17.92740262	      9.25425825	     -5.68315251	      8.35375103	     27.82448533	      0.07385882	     -7.14912564	    -61.82661340	     10.17433931	      5.86274363	      4.72548528	    -13.02571842	     -0.66557489	      2.25847198
      0.83300000	     -6.86394015	      4.32825889	      0.51953612	     -0.34046229	      1.06956961	      0.30375750	     13.15044359	     -1.87594218	      2.16888617	    -17.72180417	      9.39335547	     -5.58969061	      8.34774201	     28.14732739	      0.12528942	     -7.31053356	    -60.99856421	     10.32756126	      6.01966629	      4.73982128	    -13.04738457	     -0.81702916	      2.41202051
      0.83716667	     -6.84083098	      4.40231041	      0.40225085	     -0.33561830	      1.06984969	      0.30403679	     12.75481777	     -1.93762860	      2.21839319	    -17.51460363	      9.53654582	     -5.49178206	      8.34156412	     28.46782613	      0.17027848	     -7.45319085	    -60.14223166	     10.46429376	      6.15799490	      4.75363673	    -13.06235017	     -0.95253778	      2.56517321
